<svg id="Layer_1" enable-background="new 0 0 512 512" height="512" viewBox="0 0 512 512" width="512" xmlns="http://www.w3.org/2000/svg"><g><path d="m256 21.996c-135.311 0-245.002 109.691-245.002 245.002 0 126.223 95.457 230.136 218.116 243.527h53.77c122.661-13.39 218.119-117.303 218.119-243.527-.001-135.311-109.692-245.002-245.003-245.002z" fill="#e80054"/><path d="m409.835 165.429h-10.22v29.886h10.22c8.253 0 14.943-6.69 14.943-14.943.001-8.253-6.689-14.943-14.943-14.943z" fill="#bec8f7"/><path d="m112.386 165.429h-10.221c-8.253 0-14.943 6.69-14.943 14.943s6.69 14.943 14.943 14.943h10.221z" fill="#a8b7ef"/><path d="m135.63 165.429h18.264v29.886h-18.264z" fill="#a8b7ef"/><path d="m358.106 165.429h18.264v29.886h-18.264z" fill="#bec8f7"/><path d="m255.998 421.232c-5.749 0-10.815 2.898-13.836 7.308v38.421h27.673v-38.42c-3.021-4.411-8.088-7.309-13.837-7.309z" fill="#bec8f7"/><path d="m255.998 422.298c6.219 0 11.555 3.78 13.836 9.167v-37.414h-27.673v37.414c2.283-5.387 7.618-9.167 13.837-9.167z" fill="#a8b7ef"/><g><path d="m326.819 380.872c-3.221 0-6.303-1.83-7.75-4.943-1.987-4.276-.131-9.354 4.146-11.342 34.164-15.874 56.239-50.408 56.239-87.977v-48.669c0-4.717 3.823-8.539 8.539-8.539s8.539 3.823 8.539 8.539v48.669c0 44.188-25.954 84.8-66.12 103.465-1.164.541-2.389.797-3.593.797z" fill="#d3dcfb"/></g><g><path d="m185.86 381.185c-1.186 0-2.389-.248-3.539-.772-40.612-18.523-66.853-59.268-66.853-103.803v-48.669c0-4.717 3.823-8.539 8.539-8.539s8.539 3.823 8.539 8.539v48.669c0 37.864 22.319 72.51 56.862 88.264 4.291 1.958 6.183 7.023 4.226 11.313-1.432 3.142-4.532 4.998-7.774 4.998z" fill="#a8b7ef"/></g><g><path d="m282.511 395.928h-53.021c-13.382 0-26.543-2.219-39.119-6.594-7.218-2.511-11.032-10.397-8.521-17.614s10.398-11.032 17.614-8.521c9.645 3.356 19.747 5.057 30.026 5.057h53.021c10.279 0 20.381-1.701 30.026-5.057 7.217-2.512 15.104 1.304 17.614 8.521 2.511 7.217-1.304 15.103-8.521 17.614-12.576 4.375-25.737 6.594-39.119 6.594z" fill="#e9efff"/></g><path d="m268.729 464.065h-25.46c-7.817 0-14.155 6.337-14.155 14.155v32.306c8.831.963 17.798 1.474 26.886 1.474 9.087 0 18.053-.511 26.883-1.474v-32.306c0-7.818-6.337-14.155-14.154-14.155z" fill="#d3dcfb"/><path d="m387.993 198.712c6.146 0 11.428-3.647 13.836-8.888v-48.193c0-7.641-6.195-13.836-13.836-13.836s-13.836 6.195-13.836 13.836v48.193c2.408 5.241 7.69 8.888 13.836 8.888z" fill="#e9efff"/><path d="m308.469 13.115v64.669c-1.361 2.373-7.879 14.835 0 23.384v15.939c-3.194 4.059-6.816 12.895.439 20.151 7.354 7.354.302 14.652.001 14.957l-.081.088c-3.198 3.752-7.28 12.691-.358 20.135v15.793c-1.294 1.205-4.323 4.498-4.602 9.124-.221 3.678 1.327 7.282 4.602 10.723v15.933c-3.128 3.975-6.665 12.53 0 19.697v15.94c-1.86 2.379-9.517 13.442 0 23.511v64.47c28.963-10.589 49.637-38.39 49.637-71.02v-192.474c-.001-32.63-20.675-60.431-49.638-71.02z" fill="#ffdd40"/><path d="m309.969 136.198c-8.54-8.539 0-18.555 0-18.555v-17.079c-8.54-8.539 0-22.37 0-22.37v-64.49c-8.514-3.322-17.768-5.165-27.458-5.165h-53.021c-10.139 0-19.805 2.01-28.64 5.631v64.024s-8.54 13.831 0 22.37v17.079s-8.54 10.016 0 18.555.001 17.079.001 17.079-8.539 10.017 0 18.556v17.079s-10.398 8.158 0 18.556v17.079s-8.539 10.017 0 18.556v17.079s-10.544 11.826 0 22.37v64.024c8.835 3.62 18.5 5.631 28.639 5.631h53.021c9.69 0 18.945-1.843 27.459-5.165v-64.489c-10.544-10.544 0-22.37 0-22.37v-17.079c-8.539-8.539 0-18.556 0-18.556v-17.079c-10.398-10.398 0-18.556 0-18.556v-17.079c-8.539-8.539 0-18.556 0-18.556s8.539-8.541-.001-17.08z" fill="#ffc839"/><path d="m202.85 13.382c-28.603 10.775-48.956 38.382-48.956 70.753v192.475c0 32.372 20.354 59.978 48.957 70.753v-64.812c-10.544-10.544 0-22.37 0-22.37v-17.079c-8.539-8.539 0-18.556 0-18.556v-17.079c-10.398-10.398 0-18.556 0-18.556v-17.079c-8.539-8.539 0-18.556 0-18.556s8.539-8.539-.001-17.079 0-18.555 0-18.555v-17.079c-8.54-8.539 0-22.37 0-22.37z" fill="#ffae36"/><g><path d="m202.548 78.194c-4.716 0-8.539-3.823-8.539-8.539v-56.169c0-4.717 3.823-8.539 8.539-8.539s8.539 3.823 8.539 8.539v56.169c.001 4.717-3.823 8.539-8.539 8.539z" fill="#fee884"/></g><g><path d="m238.183 78.194c-4.716 0-8.539-3.823-8.539-8.539v-61.116c0-4.717 3.823-8.539 8.539-8.539s8.539 3.823 8.539 8.539v61.116c0 4.717-3.823 8.539-8.539 8.539z" fill="#fee884"/></g><g><path d="m273.817 78.194c-4.716 0-8.539-3.823-8.539-8.539v-61.116c0-4.717 3.823-8.539 8.539-8.539s8.539 3.823 8.539 8.539v61.116c.001 4.717-3.823 8.539-8.539 8.539z" fill="#fcf2c8"/></g><g><path d="m309.452 78.194c-4.716 0-8.539-3.823-8.539-8.539v-56.169c0-4.717 3.823-8.539 8.539-8.539s8.539 3.823 8.539 8.539v56.169c0 4.717-3.823 8.539-8.539 8.539z" fill="#fcf2c8"/></g><g><path d="m358.107 260.181h-84.29c-4.716 0-8.539-3.823-8.539-8.539s3.823-8.539 8.539-8.539h84.29c4.716 0 8.539 3.823 8.539 8.539s-3.823 8.539-8.539 8.539z" fill="#fcf2c8"/></g><g><path d="m238.184 260.181h-84.29c-4.716 0-8.539-3.823-8.539-8.539s3.823-8.539 8.539-8.539h84.29c4.716 0 8.539 3.823 8.539 8.539s-3.823 8.539-8.539 8.539z" fill="#fee884"/></g><g><path d="m358.107 224.546h-84.29c-4.716 0-8.539-3.823-8.539-8.539s3.823-8.539 8.539-8.539h84.29c4.716 0 8.539 3.823 8.539 8.539s-3.823 8.539-8.539 8.539z" fill="#fcf2c8"/></g><g><path d="m238.184 224.546h-84.29c-4.716 0-8.539-3.823-8.539-8.539s3.823-8.539 8.539-8.539h84.29c4.716 0 8.539 3.823 8.539 8.539s-3.823 8.539-8.539 8.539z" fill="#fee884"/></g><g><path d="m358.107 188.911h-84.29c-4.716 0-8.539-3.823-8.539-8.539s3.823-8.539 8.539-8.539h84.29c4.716 0 8.539 3.823 8.539 8.539s-3.823 8.539-8.539 8.539z" fill="#fcf2c8"/></g><g><path d="m238.184 188.911h-84.29c-4.716 0-8.539-3.823-8.539-8.539s3.823-8.539 8.539-8.539h84.29c4.716 0 8.539 3.823 8.539 8.539s-3.823 8.539-8.539 8.539z" fill="#fee884"/></g><g><path d="m358.107 153.277h-84.29c-4.716 0-8.539-3.823-8.539-8.539 0-4.717 3.823-8.539 8.539-8.539h84.29c4.716 0 8.539 3.823 8.539 8.539s-3.823 8.539-8.539 8.539z" fill="#fcf2c8"/></g><g><path d="m238.184 153.277h-84.29c-4.716 0-8.539-3.823-8.539-8.539 0-4.717 3.823-8.539 8.539-8.539h84.29c4.716 0 8.539 3.823 8.539 8.539s-3.823 8.539-8.539 8.539z" fill="#fee884"/></g><g><path d="m358.107 117.643h-84.29c-4.716 0-8.539-3.823-8.539-8.539 0-4.717 3.823-8.539 8.539-8.539h84.29c4.716 0 8.539 3.823 8.539 8.539s-3.823 8.539-8.539 8.539z" fill="#fcf2c8"/></g><g><path d="m238.184 117.643h-84.29c-4.716 0-8.539-3.823-8.539-8.539 0-4.717 3.823-8.539 8.539-8.539h84.29c4.716 0 8.539 3.823 8.539 8.539s-3.823 8.539-8.539 8.539z" fill="#fee884"/></g><g><path d="m202.548 355.799c-4.716 0-8.539-3.823-8.539-8.539v-56.17c0-4.717 3.823-8.539 8.539-8.539s8.539 3.823 8.539 8.539v56.17c.001 4.717-3.823 8.539-8.539 8.539z" fill="#fee884"/></g><g><path d="m238.183 360.744c-4.716 0-8.539-3.823-8.539-8.539v-61.115c0-4.717 3.823-8.539 8.539-8.539s8.539 3.823 8.539 8.539v61.115c0 4.716-3.823 8.539-8.539 8.539z" fill="#fee884"/></g><g><path d="m273.817 360.744c-4.716 0-8.539-3.823-8.539-8.539v-61.115c0-4.717 3.823-8.539 8.539-8.539s8.539 3.823 8.539 8.539v61.115c.001 4.716-3.823 8.539-8.539 8.539z" fill="#fcf2c8"/></g><g><path d="m309.452 355.801c-4.716 0-8.539-3.823-8.539-8.539v-56.172c0-4.717 3.823-8.539 8.539-8.539s8.539 3.823 8.539 8.539v56.171c0 4.717-3.823 8.54-8.539 8.54z" fill="#fcf2c8"/></g><path d="m153.894 403.512c-65.106-39.435-75.894-99.565-75.894-160.41 0-36.072-30.226-48.419-54.84-52.494-7.883 24.041-12.162 49.714-12.162 76.39 0 110.51 73.17 203.916 173.703 234.447 19.919-22.637 23.952-64.765-30.807-97.933z" fill="#ff4155"/><path d="m358.106 403.512c65.106-39.435 75.894-99.565 75.894-160.41 0-36.072 30.226-48.419 54.84-52.494 7.883 24.041 12.162 49.714 12.162 76.39 0 110.51-73.17 203.916-173.703 234.447-19.919-22.637-23.952-64.765 30.807-97.933z" fill="#ff4155"/><path d="m124.008 198.643c6.169 0 11.468-3.69 13.836-8.979v-48.033c0-7.641-6.195-13.836-13.836-13.836s-13.836 6.195-13.836 13.836v48.033c2.368 5.288 7.667 8.979 13.836 8.979z" fill="#d3dcfb"/><path d="m387.993 197.315c-7.641 0-13.836-6.195-13.836-13.836v35.635c0 7.641 6.195 13.836 13.836 13.836s13.836-6.195 13.836-13.836v-35.635c0 7.641-6.195 13.836-13.836 13.836z" fill="#d3dcfb"/><path d="m124.008 197.315c-7.641 0-13.836-6.195-13.836-13.836v35.635c0 7.641 6.195 13.836 13.836 13.836s13.836-6.195 13.836-13.836v-35.635c0 7.641-6.195 13.836-13.836 13.836z" fill="#bec8f7"/></g></svg>